<?xml version="1.0" encoding="UTF-8" standalone="no"?>
<!-- Created with Inkscape (http://www.inkscape.org/) -->

<svg
   width="80"
   height="80"
   viewBox="0 0 80.000001 80"
   version="1.1"
   id="svg1"
   xmlns="http://www.w3.org/2000/svg"
   xmlns:svg="http://www.w3.org/2000/svg">
  <defs
     id="defs1" />
  <g
     id="layer1"
     transform="translate(-20,-20.288675)">
    <path
       style="opacity:1;fill:#1d957a;fill-opacity:1;stroke:#ffffff;stroke-width:1.5;stroke-linecap:butt;stroke-linejoin:bevel;stroke-dasharray:none;stroke-opacity:1"
       d="M 27.26833,41.102362 C 60,60 60,60 60,60 V 97.795277 L 27.26833,78.897638 Z"
       id="path2" />
    <path
       style="opacity:1;fill:#25c2a0;fill-opacity:1;stroke:#ffffff;stroke-width:1.5;stroke-linecap:butt;stroke-linejoin:bevel;stroke-dasharray:none;stroke-opacity:1"
       d="M 60,97.795277 C 60,97.795277 60,60 60,60 L 92.73167,41.102362 v 37.795276 z"
       id="path4" />
    <path
       style="opacity:1;fill:#25c2a0;fill-opacity:1;stroke:#ffffff;stroke-width:1.5;stroke-linecap:butt;stroke-linejoin:bevel;stroke-dasharray:none;stroke-opacity:1"
       d="M 27.26833,41.102362 C 27.26833,41.102362 60,60 60,60 L 92.73167,41.102362 60,22.204723 Z"
       id="path5" />
    <path
       style="opacity:1;fill:#1d957a;fill-opacity:1;stroke:#ffffff;stroke-width:1.5;stroke-linecap:round;stroke-linejoin:round;stroke-dasharray:none;stroke-opacity:1"
       d="M 73.092668,52.440945 V 63.779528 L 79.639002,60 V 48.661417 l -32.73167,-18.897638 -6.546334,3.779527 z"
       id="path6" />
    <path
       style="opacity:1;fill:#ffffff;fill-opacity:1;stroke:#ffffff;stroke-opacity:1"
       d="m 33.814664,75.118111 v -7.559056 l 9.819501,5.669292 v 7.559055 z"
       id="path7" />
    <path
       style="fill:none;stroke:#000000;stroke-width:2;stroke-dasharray:none;stroke-opacity:1"
       d="M 34.73167,1.1547006 67.463339,20.05234 V 57.847616 L 34.73167,76.745255 2,57.847616 V 20.05234 Z"
       id="path1"
       transform="translate(25.26833,21.050022)" />
  </g>
</svg>
