<?xml version="1.0" encoding="UTF-8" standalone="no"?>
<svg
   width="1041.277"
   height="554.141"
   viewBox="0 0 1041.277 554.141"
   version="1.1"
   id="svg1"
   sodipodi:docname="undraw_docusaurus_react.svg"
   inkscape:version="1.4 (86a8ad7, 2024-10-11)"
   xml:space="preserve"
   xmlns:inkscape="http://www.inkscape.org/namespaces/inkscape"
   xmlns:sodipodi="http://sodipodi.sourceforge.net/DTD/sodipodi-0.dtd"
   xmlns="http://www.w3.org/2000/svg"
   xmlns:svg="http://www.w3.org/2000/svg"><defs
     id="defs1" /><sodipodi:namedview
     id="namedview1"
     pagecolor="#ffffff"
     bordercolor="#000000"
     borderopacity="0.25"
     inkscape:showpageshadow="2"
     inkscape:pageopacity="0.0"
     inkscape:pagecheckerboard="0"
     inkscape:deskcolor="#d1d1d1"
     inkscape:zoom="0.52649056"
     inkscape:cx="1017.1123"
     inkscape:cy="228.874"
     inkscape:window-width="2560"
     inkscape:window-height="1369"
     inkscape:window-x="1072"
     inkscape:window-y="479"
     inkscape:window-maximized="1"
     inkscape:current-layer="svg1" /><title
     id="title1">Powered by React</title><g
     id="Group_24"
     data-name="Group 24"
     transform="translate(-440 -263)"><g
       id="Group_23"
       data-name="Group 23"
       transform="translate(439.989 262.965)"><path
         id="Path_299"
         data-name="Path 299"
         d="M1040.82,611.12q-1.74,3.75-3.47,7.4-2.7,5.67-5.33,11.12c-.78,1.61-1.56,3.19-2.32,4.77-8.6,17.57-16.63,33.11-23.45,45.89A73.21,73.21,0,0,1,942.44,719l-151.65,1.65h-1.6l-13,.14-11.12.12-34.1.37h-1.38l-17.36.19h-.53l-107,1.16-95.51,1-11.11.12-69,.75H429l-44.75.48h-.48l-141.5,1.53-42.33.46a87.991,87.991,0,0,1-10.79-.54h0c-1.22-.14-2.44-.3-3.65-.49a87.38,87.38,0,0,1-51.29-27.54C116,678.37,102.75,655,93.85,629.64q-1.93-5.49-3.6-11.12C59.44,514.37,97,380,164.6,290.08q4.25-5.64,8.64-11l.07-.08c20.79-25.52,44.1-46.84,68.93-62,44-26.91,92.75-34.49,140.7-11.9,40.57,19.12,78.45,28.11,115.17,30.55,3.71.24,7.42.42,11.11.53,84.23,2.65,163.17-27.7,255.87-47.29,3.69-.78,7.39-1.55,11.12-2.28,66.13-13.16,139.49-20.1,226.73-5.51a189.089,189.089,0,0,1,26.76,6.4q5.77,1.86,11.12,4c41.64,16.94,64.35,48.24,74,87.46q1.37,5.46,2.37,11.11C1134.3,384.41,1084.19,518.23,1040.82,611.12Z"
         transform="translate(-79.34 -172.91)"
         fill="#f2f2f2" /><path
         id="Path_300"
         data-name="Path 300"
         d="M576.36,618.52a95.21,95.21,0,0,1-1.87,11.12h93.7V618.52Zm-78.25,62.81,11.11-.09V653.77c-3.81-.17-7.52-.34-11.11-.52ZM265.19,618.52v11.12h198.5V618.52ZM1114.87,279h-74V191.51q-5.35-2.17-11.12-4V279H776.21V186.58c-3.73.73-7.43,1.5-11.12,2.28V279H509.22V236.15c-3.69-.11-7.4-.29-11.11-.53V279H242.24V217c-24.83,15.16-48.14,36.48-68.93,62h-.07v.08q-4.4,5.4-8.64,11h8.64V618.52h-83q1.66,5.63,3.6,11.12h79.39v93.62a87,87,0,0,0,12.2,2.79c1.21.19,2.43.35,3.65.49h0a87.991,87.991,0,0,0,10.79.54l42.33-.46v-97H498.11v94.21l11.11-.12V629.64H765.09V721l11.12-.12V629.64H1029.7v4.77c.76-1.58,1.54-3.16,2.32-4.77q2.63-5.45,5.33-11.12,1.73-3.64,3.47-7.4v-321h76.42Q1116.23,284.43,1114.87,279ZM242.24,618.52V290.08H498.11V618.52Zm267,0V290.08H765.09V618.52Zm520.48,0H776.21V290.08H1029.7Z"
         transform="translate(-79.34 -172.91)"
         opacity="0.1" /><path
         id="Path_301"
         data-name="Path 301"
         d="M863.09,533.65v13l-151.92,1.4-1.62.03-57.74.53-1.38.02-17.55.15h-.52l-106.98.99L349.77,551.4h-.15l-44.65.42-.48.01-198.4,1.82v-15l46.65-28,93.6-.78,2-.01.66-.01,2-.03,44.94-.37,2.01-.01.64-.01,2-.01L315,509.3l.38-.01,35.55-.3h.29l277.4-2.34,6.79-.05h.68l5.18-.05,37.65-.31,2-.03,1.85-.02h.96l11.71-.09,2.32-.03,3.11-.02,9.75-.09,15.47-.13,2-.02,3.48-.02h.65l74.71-.64Z"
         fill="#65617d" /><path
         id="Path_302"
         data-name="Path 302"
         d="M863.09,533.65v13l-151.92,1.4-1.62.03-57.74.53-1.38.02-17.55.15h-.52l-106.98.99L349.77,551.4h-.15l-44.65.42-.48.01-198.4,1.82v-15l46.65-28,93.6-.78,2-.01.66-.01,2-.03,44.94-.37,2.01-.01.64-.01,2-.01L315,509.3l.38-.01,35.55-.3h.29l277.4-2.34,6.79-.05h.68l5.18-.05,37.65-.31,2-.03,1.85-.02h.96l11.71-.09,2.32-.03,3.11-.02,9.75-.09,15.47-.13,2-.02,3.48-.02h.65l74.71-.64Z"
         opacity="0.2" /><path
         id="Path_303"
         data-name="Path 303"
         d="M375.44,656.57v24.49a6.13,6.13,0,0,1-3.5,5.54,6,6,0,0,1-2.5.6l-34.9.74a6,6,0,0,1-2.7-.57,6.12,6.12,0,0,1-3.57-5.57V656.57Z"
         transform="translate(-79.34 -172.91)"
         fill="#3f3d56" /><path
         id="Path_304"
         data-name="Path 304"
         d="M375.44,656.57v24.49a6.13,6.13,0,0,1-3.5,5.54,6,6,0,0,1-2.5.6l-34.9.74a6,6,0,0,1-2.7-.57,6.12,6.12,0,0,1-3.57-5.57V656.57Z"
         transform="translate(-79.34 -172.91)"
         opacity="0.1" /><path
         id="Path_305"
         data-name="Path 305"
         d="M377.44,656.57v24.49a6.13,6.13,0,0,1-3.5,5.54,6,6,0,0,1-2.5.6l-34.9.74a6,6,0,0,1-2.7-.57,6.12,6.12,0,0,1-3.57-5.57V656.57Z"
         transform="translate(-79.34 -172.91)"
         fill="#3f3d56" /><rect
         id="Rectangle_137"
         data-name="Rectangle 137"
         width="47.17"
         height="31.5"
         transform="translate(680.92 483.65)"
         fill="#3f3d56" /><rect
         id="Rectangle_138"
         data-name="Rectangle 138"
         width="47.17"
         height="31.5"
         transform="translate(680.92 483.65)"
         opacity="0.1" /><rect
         id="Rectangle_139"
         data-name="Rectangle 139"
         width="47.17"
         height="31.5"
         transform="translate(678.92 483.65)"
         fill="#3f3d56" /><path
         id="Path_306"
         data-name="Path 306"
         d="M298.09,483.65v4.97l-47.17,1.26v-6.23Z"
         opacity="0.1" /><path
         id="Path_307"
         data-name="Path 307"
         d="M460.69,485.27v168.2a4,4,0,0,1-3.85,3.95l-191.65,5.1h-.05a4,4,0,0,1-3.95-3.95V485.27a4,4,0,0,1,3.95-3.95h191.6a4,4,0,0,1,3.95,3.95Z"
         transform="translate(-79.34 -172.91)"
         fill="#65617d" /><path
         id="Path_308"
         data-name="Path 308"
         d="M265.19,481.32v181.2h-.05a4,4,0,0,1-3.95-3.95V485.27a4,4,0,0,1,3.95-3.95Z"
         transform="translate(-79.34 -172.91)"
         opacity="0.1" /><path
         id="Path_309"
         data-name="Path 309"
         d="M194.59,319.15h177.5V467.4l-177.5,4Z"
         fill="#39374d" /><path
         id="Path_310"
         data-name="Path 310"
         d="M726.09,483.65v6.41l-47.17-1.26v-5.15Z"
         opacity="0.1" /><path
         id="Path_311"
         data-name="Path 311"
         d="M867.69,485.27v173.3a4,4,0,0,1-4,3.95h0L672,657.42a4,4,0,0,1-3.85-3.95V485.27a4,4,0,0,1,3.95-3.95H863.7a4,4,0,0,1,3.99,3.95Z"
         transform="translate(-79.34 -172.91)"
         fill="#65617d" /><path
         id="Path_312"
         data-name="Path 312"
         d="M867.69,485.27v173.3a4,4,0,0,1-4,3.95h0V481.32h0a4,4,0,0,1,4,3.95Z"
         transform="translate(-79.34 -172.91)"
         opacity="0.1" /><path
         id="Path_313"
         data-name="Path 313"
         d="M775.59,319.15H598.09V467.4l177.5,4Z"
         fill="#39374d" /><path
         id="Path_314"
         data-name="Path 314"
         d="M663.19,485.27v168.2a4,4,0,0,1-3.85,3.95l-191.65,5.1h0a4,4,0,0,1-4-3.95V485.27a4,4,0,0,1,3.95-3.95h191.6A4,4,0,0,1,663.19,485.27Z"
         transform="translate(-79.34 -172.91)"
         fill="#65617d" /><path
         id="Path_315"
         data-name="Path 315"
         d="M397.09,319.15h177.5V467.4l-177.5,4Z"
         fill="#4267b2" /><path
         id="Path_316"
         data-name="Path 316"
         d="M863.09,533.65v13l-151.92,1.4-1.62.03-57.74.53-1.38.02-17.55.15h-.52l-106.98.99L349.77,551.4h-.15l-44.65.42-.48.01-198.4,1.82v-15l202.51-1.33h.48l40.99-.28h.19l283.08-1.87h.29l.17-.01h.47l4.79-.03h1.46l74.49-.5,4.4-.02.98-.01Z"
         opacity="0.1" /><circle
         id="Ellipse_111"
         data-name="Ellipse 111"
         cx="51.33"
         cy="51.33"
         r="51.33"
         transform="translate(435.93 246.82)"
         fill="#fbbebe" /><path
         id="Path_317"
         data-name="Path 317"
         d="M617.94,550.07s-99.5,12-90,0c3.44-4.34,4.39-17.2,4.2-31.85-.06-4.45-.22-9.06-.45-13.65-1.1-22-3.75-43.5-3.75-43.5s87-41,77-8.5c-4,13.13-2.69,31.57.35,48.88.89,5.05,1.92,10,3,14.7a344.66,344.66,0,0,0,9.65,33.92Z"
         transform="translate(-79.34 -172.91)"
         fill="#fbbebe" /><path
         id="Path_318"
         data-name="Path 318"
         d="M585.47,546c11.51-2.13,23.7-6,34.53-1.54,2.85,1.17,5.47,2.88,8.39,3.86s6.12,1.22,9.16,1.91c10.68,2.42,19.34,10.55,24.9,20s8.44,20.14,11.26,30.72l6.9,25.83c6,22.45,12,45.09,13.39,68.3a2437.506,2437.506,0,0,1-250.84,1.43c5.44-10.34,11-21.31,10.54-33s-7.19-23.22-4.76-34.74c1.55-7.34,6.57-13.39,9.64-20.22,8.75-19.52,1.94-45.79,17.32-60.65,6.92-6.68,17-9.21,26.63-8.89,12.28.41,24.85,4.24,37,6.11C555.09,547.48,569.79,548.88,585.47,546Z"
         transform="translate(-79.34 -172.91)"
         fill="#ff6584" /><path
         id="Path_319"
         data-name="Path 319"
         d="M716.37,657.17l-.1,1.43v.1l-.17,2.3-1.33,18.51-1.61,22.3-.46,6.28-1,13.44v.17l-107,1-175.59,1.9v.84h-.14v-1.12l.45-14.36.86-28.06.74-23.79.07-2.37a10.53,10.53,0,0,1,11.42-10.17c4.72.4,10.85.89,18.18,1.41l3,.22c42.33,2.94,120.56,6.74,199.5,2,1.66-.09,3.33-.19,5-.31,12.24-.77,24.47-1.76,36.58-3a10.53,10.53,0,0,1,11.6,11.23Z"
         transform="translate(-79.34 -172.91)"
         opacity="0.1" /><path
         id="Path_320"
         data-name="Path 320"
         d="M429.08,725.44v-.84l175.62-1.91,107-1h.3v-.17l1-13.44.43-6,1.64-22.61,1.29-17.9v-.44a10.617,10.617,0,0,0-.11-2.47.3.3,0,0,0,0-.1,10.391,10.391,0,0,0-2-4.64,10.54,10.54,0,0,0-9.42-4c-12.11,1.24-24.34,2.23-36.58,3-1.67.12-3.34.22-5,.31-78.94,4.69-157.17.89-199.5-2l-3-.22c-7.33-.52-13.46-1-18.18-1.41a10.54,10.54,0,0,0-11.24,8.53,11,11,0,0,0-.18,1.64l-.68,22.16L429.54,710l-.44,14.36v1.12Z"
         transform="translate(-79.34 -172.91)"
         fill="#3f3d56" /><path
         id="Path_321"
         data-name="Path 321"
         d="M716.67,664.18l-1.23,15.33-1.83,22.85-.46,5.72-1,12.81-.06.64v.17h0l-.15,1.48.11-1.48h-.29l-107,1-175.65,1.9v-.28l.49-14.36,1-28.06.64-18.65A6.36,6.36,0,0,1,434.3,658a6.25,6.25,0,0,1,3.78-.9c2.1.17,4.68.37,7.69.59,4.89.36,10.92.78,17.94,1.22,13,.82,29.31,1.7,48,2.42,52,2,122.2,2.67,188.88-3.17,3-.26,6.1-.55,9.13-.84a6.26,6.26,0,0,1,3.48.66,5.159,5.159,0,0,1,.86.54,6.14,6.14,0,0,1,2,2.46,3.564,3.564,0,0,1,.25.61A6.279,6.279,0,0,1,716.67,664.18Z"
         transform="translate(-79.34 -172.91)"
         opacity="0.1" /><path
         id="Path_322"
         data-name="Path 322"
         d="M377.44,677.87v3.19a6.13,6.13,0,0,1-3.5,5.54l-40.1.77a6.12,6.12,0,0,1-3.57-5.57v-3Z"
         transform="translate(-79.34 -172.91)"
         opacity="0.1" /><path
         id="Path_323"
         data-name="Path 323"
         d="M298.59,515.57l-52.25,1V507.9l52.25-1Z"
         fill="#3f3d56" /><path
         id="Path_324"
         data-name="Path 324"
         d="M298.59,515.57l-52.25,1V507.9l52.25-1Z"
         opacity="0.1" /><path
         id="Path_325"
         data-name="Path 325"
         d="M300.59,515.57l-52.25,1V507.9l52.25-1Z"
         fill="#3f3d56" /><path
         id="Path_326"
         data-name="Path 326"
         d="M758.56,679.87v3.19a6.13,6.13,0,0,0,3.5,5.54l40.1.77a6.12,6.12,0,0,0,3.57-5.57v-3Z"
         transform="translate(-79.34 -172.91)"
         opacity="0.1" /><path
         id="Path_327"
         data-name="Path 327"
         d="M678.72,517.57l52.25,1V509.9l-52.25-1Z"
         opacity="0.1" /><path
         id="Path_328"
         data-name="Path 328"
         d="M676.72,517.57l52.25,1V509.9l-52.25-1Z"
         fill="#3f3d56" /><path
         id="Path_329"
         data-name="Path 329"
         d="M534.13,486.79c.08,7-3.16,13.6-5.91,20.07a163.491,163.491,0,0,0-12.66,74.71c.73,11,2.58,22,.73,32.9s-8.43,21.77-19,24.9c17.53,10.45,41.26,9.35,57.76-2.66,8.79-6.4,15.34-15.33,21.75-24.11a97.86,97.86,0,0,1-13.31,44.75A103.43,103.43,0,0,0,637,616.53c4.31-5.81,8.06-12.19,9.72-19.23,3.09-13-1.22-26.51-4.51-39.5a266.055,266.055,0,0,1-6.17-33c-.43-3.56-.78-7.22.1-10.7,1-4.07,3.67-7.51,5.64-11.22,5.6-10.54,5.73-23.3,2.86-34.88s-8.49-22.26-14.06-32.81c-4.46-8.46-9.3-17.31-17.46-22.28-5.1-3.1-11-4.39-16.88-5.64l-25.37-5.43c-5.55-1.19-11.26-2.38-16.87-1.51-9.47,1.48-16.14,8.32-22,15.34-4.59,5.46-15.81,15.71-16.6,22.86-.72,6.59,5.1,17.63,6.09,24.58,1.3,9,2.22,6,7.3,11.52C532,478.05,534.07,482,534.13,486.79Z"
         transform="translate(-79.34 -172.91)"
         fill="#3f3d56" /></g></g><g
     fill="#d70751"
     id="g4"
     transform="matrix(0.43967486,0,0,0.43967486,663.1024,371.01686)"><path
       d="m 64.525,62.053 c -4.125,0.058 0.78,2.125 6.165,2.954 1.488,-1.161 2.838,-2.336 4.04,-3.479 -3.354,0.821 -6.765,0.838 -10.205,0.525 m 22.14,-5.52 c 2.457,-3.389 4.246,-7.102 4.878,-10.939 -0.551,2.736 -2.035,5.099 -3.435,7.592 -7.711,4.854 -0.726,-2.883 -0.004,-5.824 -8.29,10.436 -1.138,6.257 -1.439,9.171 m 8.174,-21.265 c 0.497,-7.428 -1.462,-5.08 -2.121,-2.245 0.766,0.4 1.377,5.237 2.121,2.245 M 48.883,-66.264 c 2.201,0.395 4.757,0.698 4.398,1.224 2.407,-0.528 2.954,-1.015 -4.398,-1.224"
       id="path1-1" /><path
       d="m 53.281,-65.04 -1.556,0.32 1.448,-0.127 0.108,-0.193"
       id="path2-7" /><path
       d="m 121.93,38.085 c 0.247,6.671 -1.95,9.907 -3.932,15.637 l -3.564,1.781 c -2.919,5.666 0.282,3.598 -1.807,8.105 -4.556,4.049 -13.823,12.67 -16.789,13.457 -2.163,-0.047 1.469,-2.554 1.943,-3.537 -6.097,4.188 -4.894,6.285 -14.217,8.83 L 83.291,81.751 C 60.29,92.569 28.344,71.129 28.765,41.875 28.519,43.732 28.067,43.268 27.557,44.019 26.371,28.967 34.509,13.849 48.232,7.676 61.659,1.03 77.395,3.758 87.012,12.72 81.73,5.8 71.217,-1.534 58.757,-0.848 46.549,-0.655 35.132,7.102 31.321,15.521 c -6.253,3.938 -6.979,15.177 -9.704,17.233 -3.665,26.943 6.896,38.583 24.762,52.275 2.812,1.896 0.792,2.184 1.173,3.627 C 41.616,85.877 36.18,81.68 31.711,76.542 c 2.372,3.473 4.931,6.847 8.239,9.499 -5.596,-1.897 -13.074,-13.563 -15.256,-14.038 9.647,17.274 39.142,30.295 54.587,23.836 -7.146,0.263 -16.226,0.146 -24.256,-2.822 -3.371,-1.734 -7.958,-5.331 -7.14,-6.003 21.079,7.875 42.854,5.965 61.09,-8.655 4.641,-3.614 9.709,-9.761 11.173,-9.846 -2.206,3.317 0.377,1.596 -1.318,4.523 4.625,-7.456 -2.008,-3.035 4.779,-12.877 l 2.507,3.453 c -0.931,-6.188 7.687,-13.704 6.813,-23.492 1.975,-2.994 2.206,3.22 0.107,10.107 2.912,-7.64 0.767,-8.867 1.516,-15.171 0.81,2.118 1.867,4.37 2.412,6.606 -1.895,-7.382 1.948,-12.433 2.898,-16.724 -0.937,-0.415 -2.928,3.264 -3.383,-5.457 0.065,-3.788 1.054,-1.985 1.435,-2.917 -0.744,-0.427 -2.694,-3.33 -3.88,-8.9 0.86,-1.308 2.3,3.393 3.47,3.586 -0.753,-4.429 -2.049,-7.805 -2.103,-11.202 -3.421,-7.149 -1.211,0.953 -3.985,-3.069 -3.641,-11.357 3.021,-2.637 3.47,-7.796 5.52,7.995 8.667,20.387 10.11,25.519 -1.103,-6.258 -2.883,-12.32 -5.058,-18.185 1.677,0.705 -2.699,-12.875 2.18,-3.882 -5.21,-19.172 -22.302,-37.087 -38.025,-45.493 1.924,1.76 4.354,3.971 3.481,4.317 -7.819,-4.656 -6.444,-5.018 -7.565,-6.985 -6.369,-2.591 -6.788,0.208 -11.007,0.004 -12.005,-6.368 -14.318,-5.69 -25.368,-9.681 l 0.502,2.349 c -7.953,-2.649 -9.265,1.005 -17.862,0.009 -0.523,-0.409 2.753,-1.479 5.452,-1.871 -7.69,1.015 -7.329,-1.515 -14.854,0.279 1.855,-1.301 3.815,-2.162 5.793,-3.269 -6.271,0.381 -14.971,3.649 -12.286,0.677 -10.235,4.569 -28.403,10.976 -38.597,20.535 l -0.321,-2.142 c -4.672,5.608 -20.371,16.748 -21.622,24.011 l -1.249,0.291 c -2.431,4.116 -4.004,8.781 -5.932,13.016 -3.18,5.417 -4.661,2.085 -4.208,2.934 -6.253,12.679 -9.359,23.332 -12.043,32.069 1.912,2.858 0.046,17.206 0.769,28.688 -3.141,56.709 39.8,111.77 86.737,124.48 6.88,2.459 17.11,2.364 25.813,2.618 -10.268,-2.937 -11.595,-1.556 -21.595,-5.044 -7.215,-3.398 -8.797,-7.277 -13.907,-11.711 l 2.022,3.573 c -10.021,-3.547 -5.829,-4.39 -13.982,-6.972 l 2.16,-2.82 C 11.175,156.251 5.82,151.022 4.355,148.126 l -3.553,0.14 c -4.27,-5.269 -6.545,-9.063 -6.379,-12.005 l -1.148,2.047 c -1.301,-2.235 -15.709,-19.759 -8.234,-15.679 -1.389,-1.271 -3.235,-2.067 -5.237,-5.703 l 1.522,-1.739 c -3.597,-4.627 -6.621,-10.562 -6.391,-12.536 1.919,2.592 3.25,3.075 4.568,3.52 -9.083,-22.539 -9.593,-1.242 -16.474,-22.942 l 1.456,-0.116 c -1.116,-1.682 -1.793,-3.506 -2.69,-5.298 l 0.633,-6.313 C -44.113,63.94 -39.401,39.351 -38.459,25.865 -37.804,20.38 -33,14.543 -29.345,5.388 l -2.227,-0.384 c 4.256,-7.423 24.301,-29.814 33.583,-28.662 4.499,-5.649 -0.892,-0.02 -1.772,-1.443 9.878,-10.223 12.984,-7.222 19.65,-9.061 7.19,-4.268 -6.17,1.664 -2.761,-1.628 12.427,-3.174 8.808,-7.216 25.021,-8.828 1.71,0.973 -3.969,1.503 -5.395,2.766 10.354,-5.066 32.769,-3.914 47.326,2.811 16.895,7.896 35.873,31.232 36.622,53.189 l 0.852,0.229 c -0.431,8.729 1.336,18.822 -1.727,28.094 l 2.1,-4.385"
       id="path3" /><path
       d="m 19.5,67.715 -0.578,2.893 c 2.71,3.683 4.861,7.673 8.323,10.552 -2.49,-4.863 -4.341,-6.872 -7.745,-13.445 m 6.409,-0.251 c -1.435,-1.587 -2.284,-3.497 -3.235,-5.4 0.909,3.345 2.771,6.219 4.504,9.143 l -1.269,-3.743 m 113.411,-24.65 -0.605,1.52 c -1.111,7.892 -3.511,15.701 -7.189,22.941 4.06,-7.639 6.69,-15.995 7.79,-24.461 M 49.698,-68.243 c 2.789,-1.022 6.855,-0.56 9.814,-1.233 -3.855,0.324 -7.693,0.517 -11.484,1.005 l 1.67,0.228 m -97.917,52.067 c 0.642,5.951 -4.477,8.26 1.134,4.337 3.007,-6.773 -1.175,-1.87 -1.134,-4.337 m -6.593,27.538 c 1.292,-3.967 1.526,-6.349 2.02,-8.645 -3.571,4.566 -1.643,5.539 -2.02,8.645"
       id="path4-1" /></g><g
     inkscape:label="Layer 1"
     inkscape:groupmode="layer"
     id="layer1"
     transform="matrix(1.3859748,0,0,1.3859748,194.34118,310.23065)"><path
       style="opacity:1;fill:#1d957a;fill-opacity:1;stroke:#ffffff;stroke-width:1.5;stroke-linecap:butt;stroke-linejoin:bevel;stroke-dasharray:none;stroke-opacity:1"
       d="M 27.26833,41.102362 C 60,60 60,60 60,60 V 97.795277 L 27.26833,78.897638 Z"
       id="path2" /><path
       style="opacity:1;fill:#25c2a0;fill-opacity:1;stroke:#ffffff;stroke-width:1.5;stroke-linecap:butt;stroke-linejoin:bevel;stroke-dasharray:none;stroke-opacity:1"
       d="M 60,97.795277 C 60,97.795277 60,60 60,60 L 92.73167,41.102362 v 37.795276 z"
       id="path4" /><path
       style="opacity:1;fill:#25c2a0;fill-opacity:1;stroke:#ffffff;stroke-width:1.5;stroke-linecap:butt;stroke-linejoin:bevel;stroke-dasharray:none;stroke-opacity:1"
       d="M 27.26833,41.102362 C 27.26833,41.102362 60,60 60,60 L 92.73167,41.102362 60,22.204723 Z"
       id="path5" /><path
       style="opacity:1;fill:#1d957a;fill-opacity:1;stroke:#ffffff;stroke-width:1.5;stroke-linecap:round;stroke-linejoin:round;stroke-dasharray:none;stroke-opacity:1"
       d="M 73.092668,52.440945 V 63.779528 L 79.639002,60 V 48.661417 l -32.73167,-18.897638 -6.546334,3.779527 z"
       id="path6"
       sodipodi:nodetypes="ccccccc" /><path
       style="opacity:1;fill:#ffffff;fill-opacity:1;stroke:#ffffff;stroke-opacity:1"
       d="m 33.814664,75.118111 v -7.559056 l 9.819501,5.669292 v 7.559055 z"
       id="path7" /><path
       style="fill:none;stroke:#000000;stroke-width:2;stroke-dasharray:none;stroke-opacity:1"
       d="M 34.73167,1.1547006 67.463339,20.05234 V 57.847616 L 34.73167,76.745255 2,57.847616 V 20.05234 Z"
       id="path1"
       sodipodi:nodetypes="ccccccc"
       inkscape:label="outline"
       transform="translate(25.26833,21.050022)" /></g></svg>
